<svg xmlns="http://www.w3.org/2000/svg" width="87" height="87" viewBox="0 0 87 87">
    <g fill="#FF5630" fill-rule="nonzero">
        <path stroke="#FF5630" d="M43.5 2.992c22.372 0 40.508 18.136 40.508 40.508 0 22.372-18.136 40.508-40.508 40.508-22.372 0-40.508-18.136-40.508-40.508C3.014 21.137 21.137 3.014 43.5 2.992M43.5 1C20.028 1 1 20.028 1 43.5S20.028 86 43.5 86 86 66.972 86 43.5A42.5 42.5 0 0 0 43.5 1z"/>
        <path d="M43.006 65c-.626 0-1.259 0-1.912-.09-4.894-.478-9.6-2.702-13.617-6.437-.314-.258-.496-.722-.475-1.21.02-.488.24-.923.573-1.133.334-.21.727-.163 1.026.123 3.717 3.458 8.071 5.52 12.6 5.965 5.76.497 11.475-1.606 16.216-5.965.458-.416 1.083-.264 1.4.34.155.289.215.649.167.998-.048.349-.2.657-.422.856-4.57 4.207-9.991 6.491-15.556 6.553z"/>
        <path d="M43.006 66c-.626 0-1.259 0-1.912-.09-4.894-.478-9.6-2.702-13.617-6.437-.314-.258-.496-.722-.475-1.21.02-.488.24-.923.573-1.133.334-.21.727-.163 1.026.123 3.717 3.458 8.071 5.52 12.6 5.965 5.76.497 11.475-1.606 16.216-5.965.458-.416 1.083-.264 1.4.34.155.289.215.649.167.998-.048.349-.2.657-.422.856-4.57 4.207-9.991 6.491-15.556 6.553zM25.967 39.977a.944.944 0 0 1-.462-.126c-.462-.273-.638-.89-.397-1.394C26.171 36.33 28.242 35 30.496 35s4.325 1.329 5.388 3.457c.255.51.076 1.145-.4 1.419-.477.273-1.07.081-1.325-.429-.723-1.449-2.132-2.353-3.666-2.353-1.534 0-2.944.904-3.667 2.353a.972.972 0 0 1-.859.53z"/>
        <path d="M25.967 38.977a.944.944 0 0 1-.462-.126c-.462-.273-.638-.89-.397-1.394C26.171 35.33 28.242 34 30.496 34s4.325 1.329 5.388 3.457c.255.51.076 1.145-.4 1.419-.477.273-1.07.081-1.325-.429-.723-1.449-2.132-2.353-3.666-2.353-1.534 0-2.944.904-3.667 2.353a.972.972 0 0 1-.859.53zM63.034 39.964a.975.975 0 0 1-.858-.547c-.723-1.438-2.13-2.337-3.662-2.337-1.533 0-2.94.899-3.663 2.337a.974.974 0 0 1-.834.582.962.962 0 0 1-.878-.503 1.096 1.096 0 0 1-.004-1.061C54.195 36.32 56.263 35 58.514 35c2.25 0 4.318 1.32 5.378 3.435.241.5.066 1.113-.397 1.384a.95.95 0 0 1-.461.145z"/>
        <path d="M63.034 38.964a.975.975 0 0 1-.858-.547c-.723-1.438-2.13-2.337-3.662-2.337-1.533 0-2.94.899-3.663 2.337a.974.974 0 0 1-.834.582.962.962 0 0 1-.878-.503 1.096 1.096 0 0 1-.004-1.061C54.195 35.32 56.263 34 58.514 34c2.25 0 4.318 1.32 5.378 3.435.241.5.066 1.113-.397 1.384a.95.95 0 0 1-.461.145z"/>
    </g>
</svg>
