<svg xmlns="http://www.w3.org/2000/svg" width="27" height="27" viewBox="0 0 27 27">
    <g fill="none" fill-rule="evenodd" stroke="#231F20" stroke-linecap="round" stroke-linejoin="round" stroke-width="1.5">
        <path d="M19.222 10.357c2.076 4.548-1.067 10.052-6.519 9.51-3.506-.35-6.714-4.188-5.291-8.55.089-.275.28-.577.425-.868"/>
        <path d="M1.085 8.723v12.88c.237 2.338 2.043 4.176 4.38 4.397h16.18c2.342-.245 4.087-2.229 4.32-4.337V8.723"/>
        <path d="M12.886 8.467c-.955.117-1.469.328-1.946.62-1.096.67-2.128 1.92-2.312 3.592-.373 3.38 2.06 5.7 4.866 5.7 2.236 0 4.955-1.626 4.928-5.018-.026-3.087-2.445-5.272-5.536-4.894zm4.198 5.885c-.408 1.71-2.271 3.002-4.198 2.727-1.842-.263-3.82-2.596-2.738-5.204.4-.96 1.3-2.037 3.163-2.169 2.29-.161 4.421 1.922 3.773 4.646z"/>
        <path d="M5.376 7.21V1.227M3.283 7.21V1.717c-.329.198-.621.423-.859.656C1.046 3.723.934 6.045 1.022 9h7.744c.314-.073.691-.451.976-.657 1.043-.752 2.384-1.163 3.747-1.178h.039c1.362.015 2.704.426 3.746 1.178.285.205.662.584.976.657h7.744c.034-2.985-.024-5.278-1.403-6.627A5.101 5.101 0 0 0 21.603 1H7.704v6.21m15.824-.81c0 .348-.288.63-.643.63h-2.678a.637.637 0 0 1-.643-.63V3.778c0-.348.288-.63.643-.63h2.678c.355 0 .643.282.643.63V6.4z"/>
    </g>
</svg>
