<svg xmlns="http://www.w3.org/2000/svg" width="27" height="27" viewBox="0 0 27 27">
    <path fill="none" fill-rule="evenodd" stroke="#231F20" stroke-linecap="round" stroke-linejoin="round" stroke-width="1.5" d="M13.5 1C6.598 1 1 6.596 1 13.5c0 5.119 3.078 9.517 7.482 11.45-.035-.873-.005-1.922.217-2.87.242-1.016 1.61-6.813 1.61-6.813s-.4-.798-.4-1.977c0-1.852 1.074-3.235 2.413-3.235 1.135 0 1.685.853 1.685 1.875 0 1.143-.73 2.853-1.104 4.436-.314 1.326.664 2.408 1.97 2.408 2.37 0 3.965-3.041 3.965-6.646 0-2.739-1.844-4.788-5.202-4.788-3.79 0-6.153 2.826-6.153 5.983 0 1.09.321 1.858.824 2.454.232.273.264.382.179.696-.058.23-.195.783-.253 1.002-.084.319-.34.43-.627.314-1.746-.712-2.559-2.625-2.559-4.775 0-3.551 2.994-7.81 8.934-7.81 4.773 0 7.914 3.454 7.914 7.162 0 4.903-2.727 8.565-6.745 8.565-1.351 0-2.62-.73-3.054-1.556 0 0-.726 2.88-.88 3.436-.264.961-.784 1.928-1.258 2.677 1.123.333 2.311.512 3.542.512C20.403 26 26 20.404 26 13.5S20.403 1 13.5 1z"/>
</svg>
