<svg xmlns="http://www.w3.org/2000/svg" width="85" height="85" viewBox="0 0 85 85">
    <path fill="#FF5630" fill-rule="nonzero" d="M17.708 70.023l-3.541 3.541v.811h-.406.406V85h-3.542v-7.894l-4.579 4.579-2.504-2.504 4.805-4.806H0v-3.542h11.889l3.542-3.541H7.083V63.75h11.89l18.846-18.847-2.402-2.403 10.625-3.542L42.5 49.583l-2.176-2.176L21.25 66.481V77.916h-3.542v-7.893zM7.083 38.958C7.083 17.442 24.526 0 46.042 0 67.558 0 85 17.442 85 38.958S67.558 77.917 46.042 77.917a38.776 38.776 0 0 1-21.25-6.3V67.82l.301-.302a35.258 35.258 0 0 0 20.949 6.857c19.56 0 35.416-15.857 35.416-35.417 0-19.56-15.856-35.416-35.416-35.416-19.56 0-35.417 15.856-35.417 35.416 0 7.89 2.58 15.176 6.94 21.062l-.187.188h-3.994a38.776 38.776 0 0 1-6.3-21.25zm28.345.503a10.804 10.804 0 0 1-.011-.503c0-5.868 4.757-10.625 10.625-10.625s10.625 4.757 10.625 10.625-4.757 10.625-10.625 10.625c-.169 0-.336-.004-.503-.011l1-3.499.052-.052a7.084 7.084 0 1 0-7.615-7.574l-3.548 1.014zm-14.178-.503c0-13.692 11.1-24.791 24.792-24.791 13.692 0 24.791 11.1 24.791 24.791 0 13.692-11.1 24.792-24.791 24.792-4.898 0-9.464-1.42-13.309-3.871l2.576-2.576a21.152 21.152 0 0 0 10.733 2.905c11.736 0 21.25-9.514 21.25-21.25s-9.514-21.25-21.25-21.25-21.25 9.514-21.25 21.25c0 3.967 1.087 7.68 2.979 10.857l-2.572 2.572a24.676 24.676 0 0 1-3.949-13.429z"/>
</svg>
