<?xml version="1.0" encoding="UTF-8"?>
<svg width="50px" height="36px" viewBox="0 0 50 36" version="1.1" xmlns="http://www.w3.org/2000/svg" xmlns:xlink="http://www.w3.org/1999/xlink">
    <!-- Generator: Sketch 59.1 (86144) - https://sketch.com -->
    <title>truck</title>
    <desc>Created with Sketch.</desc>
    <g id="Page-1" stroke="none" stroke-width="1" fill="none" fill-rule="evenodd">
        <g id="truck" fill="#FF5630" fill-rule="nonzero">
            <path d="M12,26 C9.24248047,26 7,28.2424805 7,31 C7,33.7575195 9.24248047,36 12,36 C14.7575195,36 17,33.7575195 17,31 C17,28.2424805 14.7574219,26 12,26 Z M12,34.3333008 C10.1616211,34.3333008 8.66669922,32.8382812 8.66669922,31 C8.66669922,29.1616211 10.1617188,27.6666992 12,27.6666992 C13.8382813,27.6666992 15.3333008,29.1617187 15.3333008,31 C15.3333008,32.8382812 13.8382813,34.3333008 12,34.3333008 Z" id="Shape"></path>
            <path d="M40,26 C37.2424805,26 35,28.2424805 35,31 C35,33.7575195 37.2424805,36 40,36 C42.7575195,36 45,33.7575195 45,31 C45,28.2424805 42.7575195,26 40,26 Z M40,34.3333008 C38.1616211,34.3333008 36.6666992,32.8382812 36.6666992,31 C36.6666992,29.1616211 38.1617187,27.6666992 40,27.6666992 C41.8383789,27.6666992 43.3333008,29.1617187 43.3333008,31 C43.3333008,32.8382812 41.8383789,34.3333008 40,34.3333008 Z" id="Shape"></path>
            <path d="M49.8699847,21.3169792 L42.5062961,9.39101997 C42.3557624,9.14734375 42.0964033,9 41.8181556,9 L32.8181557,9 C32.3656915,9 32,9.38163628 32,9.85181858 L32,31.1480816 C32,31.6191623 32.3656915,32 32.8181557,32 L36.0908742,32 L36.0908742,30.2961632 L33.6363113,30.2961632 L33.6363113,10.703737 L41.3714443,10.703737 L48.3636885,22.0282422 L48.3636885,30.2963628 L44.2727184,30.2963628 L44.2727184,32 L49.1818441,32 C49.6343083,32 50,31.6192622 50,31.1481814 L50,21.7777778 C50,21.6150608 49.9551273,21.4540408 49.8699847,21.3169792 Z" id="Path"></path>
            <path d="M36.6249405,20.3636887 L36.6249405,14.6364072 L43.1249881,14.6364072 L43.1249881,13 L35.8124702,13 C35.3631503,13 35,13.3665544 35,13.8181557 L35,21.1818443 C35,21.6343085 35.3631503,22 35.8124702,22 L48,22 L48,20.3635928 L36.6249405,20.3635928 L36.6249405,20.3636887 Z" id="Path"></path>
            <path d="M32.1750314,4 L0.824968579,4 C0.369606806,4 0,4.36894803 0,4.82349819 L0,31.1765018 C0,31.6319205 0.369606806,32 0.824968579,32 L7.42500725,32 L7.42500725,30.3529071 L1.65003384,30.3529071 L1.65003384,5.64699638 L31.3500628,5.64699638 L31.3500628,30.3529071 L15.6749831,30.3529071 L15.6749831,32 L32.1750314,32 C32.6312633,32 33,31.6319205 33,31.1765018 L33,4.82349819 C33,4.36894803 32.6312633,4 32.1750314,4 Z" id="Path"></path>
            <rect id="Rectangle" x="1" y="27" width="5" height="2"></rect>
            <rect id="Rectangle" x="18" y="27" width="14" height="2"></rect>
            <rect id="Rectangle" x="46" y="27" width="3" height="2"></rect>
            <rect id="Rectangle" x="3" y="7" width="29" height="2"></rect>
            <rect id="Rectangle" x="11" y="30" width="2" height="2"></rect>
            <rect id="Rectangle" x="39" y="30" width="2" height="2"></rect>
            <rect id="Rectangle" x="3" y="0" width="12" height="2"></rect>
            <rect id="Rectangle" x="0" y="0" width="2" height="2"></rect>
        </g>
    </g>
</svg>