<svg xmlns="http://www.w3.org/2000/svg" width="27" height="23" viewBox="0 0 27 23">
    <path fill="none" fill-rule="evenodd" stroke="#231F20" stroke-linecap="round" stroke-linejoin="round" stroke-width="1.5" d="M13.137 7.345S8.122 8.529 2.527 1.868c0 0-2.18 4.367 1.598 7.03 0 0-1.234.223-2.253-.517 0 0-.436 3.774 4.07 5.254H3.544s.654 3.034 4.869 3.7c0 0-1.744 2.368-7.413 2.22 0 0 3.198 2.516 8.068 2.442 0 0 9.01.444 13.298-9.917 1.055-2.548.945-4.957.872-6.142L26 3.422l-2.762.518s1.89-1.405 2.109-2.738L22.294 2.46s-2.29-2.109-6.178-1.258c0 0-3.56.74-2.98 6.143z"/>
</svg>
