<?xml version="1.0" encoding="UTF-8"?>
<svg width="133px" height="888px" viewBox="0 0 133 888" version="1.1" xmlns="http://www.w3.org/2000/svg" xmlns:xlink="http://www.w3.org/1999/xlink">
    <!-- Generator: Sketch 58 (84663) - https://sketch.com -->
    <title>Android</title>
    <desc>Created with Sketch.</desc>
    <g id="Android" stroke="none" stroke-width="1" fill="none" fill-rule="evenodd">
        <g id="iconfinder_basics-19_296814" transform="translate(11.000000, 8.000000)" fill="#48494B" stroke="#48494B" stroke-width="0.5">
            <path d="M12.6083333,6.65833333 C12.6083333,3.37166667 9.945,0.736666667 6.68666667,0.736666667 C3.4,0.736666667 0.765,3.4 0.765,6.65833333 C0.765,9.945 3.42833333,12.58 6.68666667,12.58 C9.945,12.6083333 12.6083333,9.945 12.6083333,6.65833333 Z M17,16.49 L16.49,17 L11.1066667,11.6166667 C9.91666667,12.665 8.38666667,13.3166667 6.65833333,13.3166667 C2.975,13.3166667 0,10.3416667 0,6.65833333 C0,2.975 2.975,0 6.65833333,0 C10.3416667,0 13.3166667,2.975 13.3166667,6.65833333 C13.3166667,8.35833333 12.665,9.91666667 11.6166667,11.1066667 L17,16.49 Z" id="Shape"></path>
        </g>
        <g id="iconfinder_shopping_bag_172551" transform="translate(10.000000, 56.000000)">
            <polygon id="Path" stroke="#48494B" stroke-linecap="round" points="5.52380952 6 4 19 20 19 18.4761905 6"></polygon>
            <rect id="Rectangle" x="0" y="0" width="22" height="22"></rect>
            <path d="M16,10 C16,9.416 16,6.81929412 16,6.23529412 C16,3.896 14.2093333,2 12,2 C9.79066667,2 8,3.896 8,6.23529412 C8,6.81929412 8,9.416 8,10" id="Path" stroke="#48494B" stroke-linecap="round"></path>
            <circle id="Oval" fill="#48494B" fill-rule="nonzero" cx="16" cy="8" r="1"></circle>
            <circle id="Oval" fill="#48494B" fill-rule="nonzero" cx="8" cy="8" r="1"></circle>
        </g>
        <path d="M23.8174211,118.393139 C23.7636316,117.797705 23.7842632,117.382157 23.7842632,116.838065 C24.0532105,116.696594 24.5351053,115.794578 24.6165263,115.032554 C24.828,115.015194 25.1614211,114.808343 25.2590526,113.991652 C25.3117368,113.553202 25.1024737,113.306459 24.975,113.22889 C25.3191053,112.191312 26.0338421,108.981433 23.6531053,108.649733 C23.4081053,108.218301 22.7806842,108 21.9653684,108 C18.7033684,108.060208 18.3098947,110.46965 19.025,113.22889 C18.8978947,113.306459 18.6886316,113.553202 18.7409474,113.991652 C18.8389474,114.808343 19.172,115.015194 19.3834737,115.032554 C19.4645263,115.794208 19.9655789,116.696594 20.2352632,116.838065 C20.2352632,117.382157 20.2555263,117.797705 20.2017368,118.393139 C19.5562632,120.132902 15.2011579,119.644586 15,123 L29,123 C28.7992105,119.644586 24.4628947,120.132902 23.8174211,118.393139 Z" id="Path" stroke="#48494B" stroke-linecap="round"></path>
        <g id="iconfinder_shopping_cart_empty_172552" transform="translate(13.000000, 153.000000)">
            <rect id="Rectangle" x="3" y="0" width="85" height="85"></rect>
            <circle id="Oval" stroke="#FF5630" stroke-width="3" cx="69" cy="78" r="5"></circle>
            <circle id="Oval" stroke="#FF5630" stroke-width="3" cx="47" cy="78" r="5"></circle>
            <circle id="Oval" fill="#FF5630" fill-rule="nonzero" cx="5" cy="8" r="5"></circle>
            <path d="M73,73 C73,73 51.5618462,73 47.1229231,73 C41.3352308,73 40.4856923,70.0352 39.4686154,66.1575 L25.9386154,11.2832 C24.7218462,7.1641 23.0075385,5 18.2775385,5 C18.2775385,5 10.2323077,5 7,5" id="Path" stroke="#FF5630" stroke-width="3.9868" stroke-linecap="round" stroke-linejoin="round"></path>
            <polyline id="Path" stroke="#FF5630" stroke-width="3.9868" stroke-linecap="round" stroke-linejoin="round" points="30 27 83 27 70.7057097 59 37.8799032 59"></polyline>
            <polyline id="Path" stroke="#FF5630" stroke-width="2.5" stroke-linecap="round" stroke-linejoin="round" points="45 43.4014643 51.268866 50 67 35"></polyline>
        </g>
        <g id="iconfinder_Happy_3713806" transform="translate(22.000000, 286.000000)" fill="#FF5630" fill-rule="nonzero">
            <path d="M42.5,1.9921875 C64.8718471,1.9921875 83.0078125,20.1281529 83.0078125,42.5 C83.0078125,64.8718471 64.8718471,83.0078125 42.5,83.0078125 C20.1281529,83.0078125 1.9921875,64.8718471 1.9921875,42.5 C2.01415125,20.1372569 20.1372569,2.01415125 42.5,1.9921875 M42.5,0 C19.0278981,0 0,19.0278981 0,42.5 C0,65.9721019 19.0278981,85 42.5,85 C65.9721019,85 85,65.9721019 85,42.5 C85,31.2282992 80.5223343,20.4182579 72.5520382,12.4479618 C64.5817421,4.47766572 53.7717008,0 42.5,0 Z" id="Shape" stroke="#FF5630"></path>
            <path d="M42.0058571,64 C41.3798542,64 40.7471202,64 40.0941924,63.91084 C35.1997273,63.43197 30.4943255,61.2075617 26.4769472,57.473491 C26.1633668,57.2154987 25.9810758,56.7513969 26.0015615,56.2631876 C26.0220472,55.7749783 26.2420437,55.340493 26.5752772,55.1301193 C26.9085107,54.9197457 27.3018563,54.9670218 27.6010599,55.253408 C31.3180314,58.7113665 35.6722154,60.7724877 40.2018918,61.2182093 C45.9606524,61.7145122 51.6764887,59.6119659 56.4173855,55.253408 C56.8750525,54.8373792 57.50043,54.988714 57.817478,55.5922159 C57.9719593,55.8819074 58.0318968,56.2417743 57.9837752,56.5906705 C57.9356536,56.9395666 57.7835247,57.2481156 57.5616919,57.446743 C52.9922285,61.6543493 47.5707855,63.9382582 42.0058571,64 Z" id="Path"></path>
            <path d="M42.0058571,65 C41.3798542,65 40.7471202,65 40.0941924,64.91084 C35.1997273,64.43197 30.4943255,62.2075617 26.4769472,58.473491 C26.1633668,58.2154987 25.9810758,57.7513969 26.0015615,57.2631876 C26.0220472,56.7749783 26.2420437,56.340493 26.5752772,56.1301193 C26.9085107,55.9197457 27.3018563,55.9670218 27.6010599,56.253408 C31.3180314,59.7113665 35.6722154,61.7724877 40.2018918,62.2182093 C45.9606524,62.7145122 51.6764887,60.6119659 56.4173855,56.253408 C56.8750525,55.8373792 57.50043,55.988714 57.817478,56.5922159 C57.9719593,56.8819074 58.0318968,57.2417743 57.9837752,57.5906705 C57.9356536,57.9395666 57.7835247,58.2481156 57.5616919,58.446743 C52.9922285,62.6543493 47.5707855,64.9382582 42.0058571,65 Z" id="Path"></path>
            <path d="M24.9672173,38.9766319 C24.8060074,38.9754964 24.6474664,38.9324499 24.5052229,38.8511928 C24.042547,38.5781866 23.8666393,37.9605017 24.1082981,37.457425 C25.1713296,35.3289 27.2421777,34 29.4960639,34 C31.7499501,34 33.8207981,35.3289 34.8838297,37.457425 C35.1389821,37.9673888 34.9598162,38.6023201 34.4836514,38.8755837 C34.0074866,39.1488473 33.4146368,38.9569639 33.1594843,38.4470001 C32.4361586,36.9982488 31.0267871,36.093705 29.4928104,36.093705 C27.9588337,36.093705 26.5494622,36.9982488 25.8261365,38.4470001 C25.6500321,38.7765903 25.3217809,38.9789985 24.9672173,38.9766319 Z" id="Path"></path>
            <path d="M24.9672173,37.9766319 C24.8060074,37.9754964 24.6474664,37.9324499 24.5052229,37.8511928 C24.042547,37.5781866 23.8666393,36.9605017 24.1082981,36.457425 C25.1713296,34.3289 27.2421777,33 29.4960639,33 C31.7499501,33 33.8207981,34.3289 34.8838297,36.457425 C35.1389821,36.9673888 34.9598162,37.6023201 34.4836514,37.8755837 C34.0074866,38.1488473 33.4146368,37.9569639 33.1594843,37.4470001 C32.4361586,35.9982488 31.0267871,35.093705 29.4928104,35.093705 C27.9588337,35.093705 26.5494622,35.9982488 25.8261365,37.4470001 C25.6500321,37.7765903 25.3217809,37.9789985 24.9672173,37.9766319 Z" id="Path"></path>
            <path d="M62.0338967,38.9639406 C61.6756385,38.9620965 61.3467897,38.7525455 61.1759667,38.4172455 C60.4534741,36.9786074 59.0457258,36.0803779 57.5135158,36.0803779 C55.9813058,36.0803779 54.5735575,36.9786074 53.8510648,38.4172455 C53.6942735,38.7593048 53.3742298,38.9825646 53.0170819,38.9990251 C52.6599339,39.0154855 52.322968,38.8225063 52.1390024,38.496152 C51.9550369,38.1697976 51.9535796,37.7624152 52.1352049,37.4345783 C53.195058,35.3204132 55.2627334,34 57.5135158,34 C59.7642982,34 61.8319735,35.3204132 62.8918266,37.4345783 C63.1332071,37.9341431 62.957502,38.5475162 62.495359,38.8186166 C62.3550325,38.9065531 62.1965721,38.9564556 62.0338967,38.9639406 L62.0338967,38.9639406 Z" id="Path"></path>
            <path d="M62.0338967,37.9639406 C61.6756385,37.9620965 61.3467897,37.7525455 61.1759667,37.4172455 C60.4534741,35.9786074 59.0457258,35.0803779 57.5135158,35.0803779 C55.9813058,35.0803779 54.5735575,35.9786074 53.8510648,37.4172455 C53.6942735,37.7593048 53.3742298,37.9825646 53.0170819,37.9990251 C52.6599339,38.0154855 52.322968,37.8225063 52.1390024,37.496152 C51.9550369,37.1697976 51.9535796,36.7624152 52.1352049,36.4345783 C53.195058,34.3204132 55.2627334,33 57.5135158,33 C59.7642982,33 61.8319735,34.3204132 62.8918266,36.4345783 C63.1332071,36.9341431 62.957502,37.5475162 62.495359,37.8186166 C62.3550325,37.9065531 62.1965721,37.9564556 62.0338967,37.9639406 L62.0338967,37.9639406 Z" id="Path"></path>
        </g>
        <g id="iconfinder_icon-41-target-arrow_315792" transform="translate(22.000000, 419.000000)" fill="#FF5630" fill-rule="nonzero">
            <path d="M17.7083333,70.0225346 L14.1666667,73.5642013 L14.1666667,74.375 L13.7612673,74.375 L14.1666667,74.375 L14.1666667,85 L10.625,85 L10.625,77.105868 L6.04600318,81.6848647 L3.54166667,79.1805281 L8.34719483,74.375 L0,74.375 L0,70.8333333 L11.8888615,70.8333333 L11.8888615,70.8333333 L15.4305282,67.2916667 L7.08333333,67.2916667 L7.08333333,63.75 L18.9721948,63.75 L37.8194307,44.9027641 L37.8194307,44.9027641 L35.4166667,42.5 L46.0416667,38.9583333 L42.5,49.5833333 L40.3237673,47.4071006 L21.25,66.480868 L21.25,66.8862673 L21.25,77.9166667 L17.7083333,77.9166667 L17.7083333,70.0225346 L17.7083333,70.0225346 Z M7.08333333,38.9583333 C7.08333333,17.4422399 24.5255735,0 46.0416667,0 C67.5577599,0 85,17.4422399 85,38.9583333 C85,60.4744265 67.5577599,77.9166667 46.0416667,77.9166667 C38.2019116,77.9166667 30.9030147,75.6009766 24.7916667,71.6162871 L24.7916667,67.8202342 L25.0934489,67.5184516 C30.9601627,71.8288176 38.2035684,74.375 46.0416667,74.375 C65.6017516,74.375 81.4583333,58.5184182 81.4583333,38.9583333 C81.4583333,19.3982484 65.6017516,3.54166667 46.0416667,3.54166667 C26.4815818,3.54166667 10.625,19.3982484 10.625,38.9583333 C10.625,46.8471947 13.2042697,54.1336355 17.5655177,60.020364 L17.3775484,60.2083333 L13.383713,60.2083333 C9.39902325,54.0969853 7.08333333,46.7980884 7.08333333,38.9583333 Z M35.428345,39.460949 C35.4205884,39.294384 35.4166667,39.1268164 35.4166667,38.9583333 C35.4166667,33.090308 40.1736414,28.3333333 46.0416667,28.3333333 C51.909692,28.3333333 56.6666667,33.090308 56.6666667,38.9583333 C56.6666667,44.8263586 51.909692,49.5833333 46.0416667,49.5833333 C45.8731836,49.5833333 45.705616,49.5794116 45.539051,49.571655 L46.5385731,46.0733278 L46.5912384,46.0206625 C50.2464297,45.7401784 53.125,42.685419 53.125,38.9583333 C53.125,35.0463164 49.9536836,31.875 46.0416667,31.875 C42.3015285,31.875 39.2384338,34.7737677 38.9764929,38.4471926 L35.428345,39.460949 L35.428345,39.460949 L35.428345,39.460949 Z M21.25,38.9583333 C21.25,25.2662741 32.3496074,14.1666667 46.0416667,14.1666667 C59.7337259,14.1666667 70.8333333,25.2662741 70.8333333,38.9583333 C70.8333333,52.6503926 59.7337259,63.75 46.0416667,63.75 C41.144,63.75 36.5780383,62.3298034 32.7331359,59.878765 L35.3090903,57.3028106 C38.4588709,59.1495942 42.1266279,60.2083333 46.0416667,60.2083333 C57.7777176,60.2083333 67.2916667,50.6943843 67.2916667,38.9583333 C67.2916667,27.2222824 57.7777176,17.7083333 46.0416667,17.7083333 C34.3056157,17.7083333 24.7916667,27.2222824 24.7916667,38.9583333 C24.7916667,42.9249929 25.8785096,46.6378067 27.770651,49.815231 L25.1985319,52.3873498 C22.7000802,48.517501 21.25,43.9072593 21.25,38.9583333 Z" id="target-arrow"></path>
        </g>
        <g id="iconfinder_Socialmedia_icons_Play_Youtube_433083" transform="translate(44.000000, 768.000000)" stroke="#231F20" stroke-linecap="round" stroke-linejoin="round" stroke-width="1.5">
            <path d="M32,4.9122254 C32,2.2012117 29.8587586,0 27.2176552,0 L4.78124138,0 C2.14124138,0 0,2.2012117 0,4.9122254 L0,18.0872082 C0,20.7999212 2.14124138,23 4.78124138,23 L27.2176552,23 C29.8587586,23 32,20.7999212 32,18.0872082 L32,4.9122254 Z M13,17 L13,5 L22,11.0019228 L13,17 Z" id="YouTube__x28_alt_x29__2_"></path>
        </g>
        <g id="iconfinder_Socialmedia_icons_Instagram_433089" transform="translate(41.000000, 701.000000)" stroke="#231F20" stroke-linecap="round" stroke-linejoin="round" stroke-width="1.5">
            <g id="Group" transform="translate(0.000000, 7.000000)">
                <path d="M18.2215517,2.35712195 C20.2982759,6.90497561 17.1551724,12.4090244 11.7034483,11.8672683 C8.19655172,11.5178049 4.9887931,7.67897561 6.41163793,3.31726829 C6.50086207,3.04156098 6.69137931,2.7395122 6.83706897,2.44931707" id="Path"></path>
                <path d="M0.0849137931,0.722634146 L0.0849137931,13.6022927 C0.321551724,15.9414146 2.12758621,17.7787317 4.46508621,18 L12.5547414,18 L20.6456897,18 C22.9866379,17.7550244 24.7318966,15.7710732 24.9646552,13.662878 C24.9646552,13.662878 24.9646552,2.79921951 24.9646552,0.722634146" id="Path"></path>
                <path d="M11.8862069,0.466682927 C10.9306034,0.584341463 10.4172414,0.794634146 9.93965517,1.08658537 C8.84353448,1.75697561 7.81206897,3.00643902 7.62801724,4.67912195 C7.25517241,8.05829268 9.68793103,10.3798537 12.4943966,10.3798537 C14.7297414,10.3798537 17.4491379,8.75326829 17.4215517,5.36136585 C17.3961207,2.27370732 14.9767241,0.0891219512 11.8862069,0.466682927 Z M16.0836207,6.3522439 C15.6762931,8.06136585 13.812931,9.35429268 11.8862069,9.07858537 C10.0443966,8.81560976 8.06508621,6.48307317 9.14827586,3.87482927 C9.54827586,2.91468293 10.4482759,1.8377561 12.3112069,1.7064878 C14.600431,1.54492683 16.7323276,3.62809756 16.0836207,6.3522439 Z" id="Shape"></path>
            </g>
            <path d="M4.3764342,6.20990853 L4.3764342,0.22672236 M2.28325627,6.20990853 L2.28325627,0.716544176 C1.95405058,0.915349231 1.66156731,1.13995664 1.42438368,1.37302385 C0.0462128736,2.72236028 -0.0652504709,5.04457252 0.0224513079,8 L7.76569752,8 C8.08021424,7.92682282 8.45737509,7.54867023 8.74164982,7.34267435 C9.78499857,6.59102205 11.126447,6.17987628 12.4890647,6.16549463 L12.5275153,6.16549463 C13.889701,6.17987628 15.2315815,6.59102205 16.2744982,7.34267435 C16.5587729,7.54824724 16.9355017,7.92682282 17.2495864,8 L24.9936967,8 C25.0278269,5.01454026 24.9703672,2.72236028 23.5909003,1.37302385 C22.9182319,0.714852218 21.8178554,0.111246233 20.6029914,0 L12.5184427,0 L12.4964092,0 L6.70377155,0 L6.70377155,6.20990853 M22.5276782,5.40030667 C22.5276782,5.74800402 22.2395152,6.03056099 21.8852519,6.03056099 L19.2066754,6.03056099 C18.852412,6.03056099 18.564249,5.74800402 18.564249,5.40030667 L18.564249,2.7777719 C18.564249,2.43049754 18.852412,2.14794057 19.2066754,2.14794057 L21.8852519,2.14794057 C22.2395152,2.14794057 22.5276782,2.43049754 22.5276782,2.7777719 L22.5276782,5.40030667 Z" id="Shape"></path>
        </g>
        <g id="iconfinder_Socialmedia_icons_Pinterest-23_433080" transform="translate(40.000000, 629.000000)" stroke="#231F20" stroke-linecap="round" stroke-linejoin="round" stroke-width="1.5">
            <path d="M12.500431,0 C5.59784483,0 0,5.59612069 0,12.5 C0,17.6185345 3.07844828,22.0168103 7.48189655,23.950431 C7.44698276,23.0767241 7.47672414,22.0275862 7.69913793,21.0806034 C7.94137931,20.0637931 9.30905172,14.2668103 9.30905172,14.2668103 C9.30905172,14.2668103 8.90862069,13.4693966 8.90862069,12.2896552 C8.90862069,10.4383621 9.98318966,9.05517241 11.3215517,9.05517241 C12.4568966,9.05517241 13.0068966,9.90818966 13.0068966,10.9297414 C13.0068966,12.0732759 12.2771552,13.7831897 11.9025862,15.3659483 C11.5887931,16.6918103 12.5668103,17.7737069 13.8737069,17.7737069 C16.2426724,17.7737069 17.837931,14.7327586 17.837931,11.1280172 C17.837931,8.38922414 15.9943966,6.33965517 12.6362069,6.33965517 C8.84568966,6.33965517 6.48318966,9.16594828 6.48318966,12.3232759 C6.48318966,13.4137931 6.80431034,14.1814655 7.30732759,14.7771552 C7.5387931,15.05 7.57068966,15.1590517 7.48577586,15.4728448 C7.42758621,15.7030172 7.29094828,16.2564655 7.23318966,16.475431 C7.1487069,16.7935345 6.89310345,16.9056034 6.60646552,16.7887931 C4.85991379,16.0767241 4.04698276,14.1642241 4.04698276,12.0137931 C4.04698276,8.4625 7.04051724,4.20431034 12.9810345,4.20431034 C17.7538793,4.20431034 20.8948276,7.65775862 20.8948276,11.3655172 C20.8948276,16.2685345 18.1676724,19.9314655 14.149569,19.9314655 C12.7987069,19.9314655 11.5297414,19.2017241 11.0961207,18.374569 C11.0961207,18.374569 10.3698276,21.2547414 10.2168103,21.8112069 C9.95215517,22.7724138 9.43232759,23.7387931 8.95818966,24.4883621 C10.0814655,24.8206897 11.2693966,25 12.500431,25 C19.4034483,25 25,19.4043103 25,12.5 C25,5.59612069 19.4034483,0 12.500431,0 Z" id="Path"></path>
        </g>
        <g id="iconfinder_Socialmedia_icons_Facebook_433084" transform="translate(50.000000, 833.000000)" stroke="#231F20" stroke-linecap="round" stroke-linejoin="round" stroke-width="1.5">
            <path d="M2.16138329,4.06777469 C2.16138329,4.59674833 2.16138329,6.95884554 2.16138329,6.95884554 L0,6.95884554 L0,10.4947501 L2.16138329,10.4947501 L2.16138329,21 L6.60274884,21 L6.60274884,10.4947501 L9.5817631,10.4947501 C9.5817631,10.4947501 9.86034139,8.7988483 9.99593586,6.94544922 C9.6076258,6.94544922 6.61863593,6.94544922 6.61863593,6.94544922 C6.61863593,6.94544922 6.61863593,4.88820882 6.61863593,4.52795641 C6.61863593,4.16697988 7.10226853,3.68072964 7.58109806,3.68072964 C8.05844972,3.68072964 9.06672578,3.68072964 10,3.68072964 C10,3.19918622 10,1.53587007 10,0 C8.75415651,0 7.33614128,0 6.71174167,0 C2.05202099,0.000362062723 2.16138329,3.53916312 2.16138329,4.06777469 Z" id="Facebook_3_"></path>
        </g>
        <g id="iconfinder_Socialmedia_icons_Twitter-07_433076" transform="translate(40.000000, 563.000000)" stroke="#231F20" stroke-linecap="round" stroke-linejoin="round" stroke-width="1.5">
            <path d="M12.1366379,6.34477074 C12.1366379,6.34477074 7.12198276,7.52901177 1.5262931,0.868204631 C1.5262931,0.868204631 -0.65387931,5.23470937 3.12543103,7.89859329 C3.12543103,7.89859329 1.89051724,8.12069335 0.871982759,7.38109137 C0.871982759,7.38109137 0.435775862,11.1550367 4.94181034,12.6351185 L2.54353448,12.6351185 C2.54353448,12.6351185 3.19827586,15.6694618 7.41293103,16.335323 C7.41293103,16.335323 5.66896552,18.7033662 0,18.5554458 C0,18.5554458 3.19827586,21.0714093 8.06767241,20.9972296 C8.06767241,20.9972296 17.0784483,21.4414298 21.3663793,11.0804181 C22.4206897,8.53241243 22.3112069,6.12267068 22.2383621,4.93799071 L25,2.42246612 L22.2383621,2.94040697 C22.2383621,2.94040697 24.1280172,1.53450481 24.3465517,0.202343384 L21.2939655,1.46032515 C21.2939655,1.46032515 19.0047414,-0.648747558 15.1163793,0.202343384 C15.1159483,0.202343384 11.5556034,0.942384295 12.1366379,6.34477074 Z" id="Path"></path>
        </g>
    </g>
</svg>